<svg width="234.577" height="60" viewBox="0 0 234.577 60" xmlns="http://www.w3.org/2000/svg" xmlns:xlink="http://www.w3.org/1999/xlink">
    <defs>
        <linearGradient x1="118.649%" y1="49.399%" x2="-111.798%" y2="50.317%" id="4rdwk9vpzb">
            <stop stop-color="#D0AD6A" offset="0%"/>
            <stop stop-color="#B18A4B" offset="32%"/>
            <stop stop-color="#D0AD6A" offset="39%"/>
            <stop stop-color="#DABB7F" offset="46%"/>
            <stop stop-color="#E9D09F" offset="59%"/>
            <stop stop-color="#F4E0B6" offset="72%"/>
            <stop stop-color="#FAE9C4" offset="83%"/>
            <stop stop-color="#FDEDC9" offset="100%"/>
        </linearGradient>
        <linearGradient x1="110.81%" y1="0%" x2="-93.323%" y2="76.393%" id="b6nkquy9rd">
            <stop stop-color="#D0AD6A" offset="0%"/>
            <stop stop-color="#B18A4B" offset="32%"/>
            <stop stop-color="#D0AD6A" offset="39%"/>
            <stop stop-color="#DABB7F" offset="46%"/>
            <stop stop-color="#E9D09F" offset="59%"/>
            <stop stop-color="#F4E0B6" offset="72%"/>
            <stop stop-color="#FAE9C4" offset="83%"/>
            <stop stop-color="#FDEDC9" offset="100%"/>
        </linearGradient>
        <path d="M3.862 15.415c-.75 0-1.414-.123-1.992-.369A3.031 3.031 0 0 1 .5 13.93c-.333-.5-.5-1.127-.5-1.882 0-.636.115-1.172.344-1.61.23-.436.546-.792.948-1.065.403-.273.867-.48 1.392-.622a9.477 9.477 0 0 1 1.682-.287c.668-.06 1.206-.123 1.614-.19.408-.067.705-.164.89-.29a.615.615 0 0 0 .28-.54v-.038c0-.383-.135-.678-.406-.887-.27-.208-.634-.313-1.093-.313-.495 0-.892.105-1.193.313-.3.209-.492.497-.573.865l-3.45-.12a3.924 3.924 0 0 1 .792-1.866c.426-.55 1.012-.981 1.76-1.297.746-.315 1.644-.473 2.695-.473.749 0 1.44.086 2.072.257.632.172 1.183.42 1.652.745.469.326.832.724 1.09 1.196.257.472.385 1.011.385 1.617v7.78H7.364v-1.595h-.092a3.29 3.29 0 0 1-.799.984 3.27 3.27 0 0 1-1.14.603 4.998 4.998 0 0 1-1.471.201zm1.154-2.384c.403 0 .766-.08 1.09-.239.324-.159.582-.378.776-.66.194-.28.29-.606.29-.979v-1.088a2.29 2.29 0 0 1-.385.15 8.978 8.978 0 0 1-1.044.231l-.543.081c-.352.055-.651.14-.899.254a1.397 1.397 0 0 0-.566.443c-.13.181-.195.396-.195.644 0 .378.14.666.417.865.278.198.631.298 1.06.298zM18.136 0v15.415h-3.627V0h3.627zm9.52 15.415c-1.225 0-2.277-.246-3.155-.74a5.067 5.067 0 0 1-2.028-2.067c-.474-.885-.71-1.913-.71-3.083 0-1.175.236-2.205.71-3.09A5.067 5.067 0 0 1 24.5 4.367c.878-.493 1.93-.74 3.156-.74 1.225 0 2.277.247 3.156.74a5.067 5.067 0 0 1 2.028 2.068c.473.885.71 1.915.71 3.09 0 1.17-.237 2.198-.71 3.083a5.067 5.067 0 0 1-2.028 2.067c-.879.494-1.93.74-3.156.74zm.024-2.744c.445 0 .822-.134 1.131-.402.31-.267.546-.64.71-1.115.165-.476.247-1.027.247-1.651 0-.635-.082-1.19-.246-1.666-.165-.476-.402-.848-.71-1.116-.31-.268-.687-.402-1.132-.402-.461 0-.85.134-1.166.402-.317.268-.557.64-.722 1.116-.164.476-.247 1.031-.247 1.666 0 .624.083 1.175.247 1.65.165.477.405.849.722 1.116.316.268.705.402 1.166.402zm8.591 2.744V3.786h3.495v2.12h.118c.206-.767.542-1.339 1.008-1.715a2.513 2.513 0 0 1 1.626-.564c.166 0 .338.011.515.034.176.023.34.057.493.102v3.218a3.352 3.352 0 0 0-.674-.144 5.917 5.917 0 0 0-.74-.053c-.426 0-.81.097-1.15.292-.341.194-.609.464-.802.81-.194.346-.291.75-.291 1.215v6.314h-3.598zm14.682 0c-1.16 0-2.161-.236-3.002-.71a4.767 4.767 0 0 1-1.936-2.03c-.45-.88-.676-1.928-.676-3.143 0-1.18.226-2.212.68-3.097a5.018 5.018 0 0 1 1.914-2.068c.824-.493 1.794-.74 2.912-.74.79 0 1.512.127 2.167.38a4.646 4.646 0 0 1 1.698 1.122c.477.496.848 1.107 1.113 1.834.265.726.397 1.558.397 2.495v.907h-9.645V8.253h6.358a2.095 2.095 0 0 0-.267-1.034 1.874 1.874 0 0 0-.712-.71 2.062 2.062 0 0 0-1.037-.256c-.395 0-.749.09-1.062.271a2.03 2.03 0 0 0-.744.736c-.183.31-.28.66-.29 1.053v2.149c0 .466.09.874.268 1.223.178.35.431.621.759.815.327.193.717.29 1.17.29.313 0 .598-.045.853-.134.255-.09.474-.22.657-.394.183-.174.32-.387.412-.64l3.244.097a4.18 4.18 0 0 1-.885 1.952c-.455.553-1.051.982-1.788 1.287-.737.305-1.59.457-2.558.457zm8.895 0V3.78h3.477v2.136h.127c.24-.707.643-1.265 1.211-1.674.569-.41 1.247-.614 2.034-.614.798 0 1.48.207 2.05.621.568.415.929.97 1.083 1.667h.12a3.034 3.034 0 0 1 1.256-1.663c.624-.417 1.359-.625 2.206-.625 1.087 0 1.97.352 2.647 1.057.678.705 1.017 1.67 1.017 2.898v7.833H73.42V8.43c0-.58-.147-1.024-.441-1.33-.295-.305-.676-.458-1.144-.458-.504 0-.9.166-1.186.497-.286.33-.43.774-.43 1.33v6.946h-3.514V8.392c0-.54-.145-.967-.434-1.28-.29-.313-.67-.47-1.144-.47-.32 0-.6.077-.845.231a1.555 1.555 0 0 0-.572.656 2.27 2.27 0 0 0-.206 1v6.886h-3.656zm26.296 0V0h6.169c1.107 0 2.036.163 2.784.49.75.325 1.313.782 1.69 1.37.379.586.568 1.266.568 2.039 0 .587-.118 1.11-.354 1.57-.236.459-.561.839-.975 1.14a3.815 3.815 0 0 1-1.438.632v.15c.597.03 1.15.199 1.658.505s.916.731 1.224 1.276c.308.544.462 1.188.462 1.93 0 .828-.202 1.567-.606 2.217-.405.65-.99 1.162-1.756 1.536-.765.373-1.695.56-2.788.56h-6.638zm3.576-3.003h2.21c.775 0 1.347-.153 1.716-.46.368-.305.552-.732.552-1.279 0-.396-.089-.739-.267-1.027a1.772 1.772 0 0 0-.759-.67c-.327-.158-.72-.237-1.177-.237H89.72v3.673zm0-6.074h1.979c.39 0 .737-.068 1.04-.203.303-.136.54-.332.711-.588.171-.256.257-.564.257-.925 0-.517-.176-.924-.527-1.22-.352-.296-.826-.444-1.423-.444H89.72v3.38zm14.794 9.077c-.749 0-1.413-.123-1.992-.369a3.031 3.031 0 0 1-1.368-1.117c-.334-.5-.501-1.127-.501-1.882 0-.636.114-1.172.344-1.61.23-.436.545-.792.948-1.065.403-.273.867-.48 1.392-.622a9.477 9.477 0 0 1 1.682-.287c.668-.06 1.206-.123 1.614-.19.407-.067.704-.164.89-.29a.615.615 0 0 0 .28-.54v-.038c0-.383-.136-.678-.406-.887-.27-.208-.634-.313-1.093-.313-.495 0-.892.105-1.193.313-.3.209-.492.497-.574.865l-3.448-.12a3.924 3.924 0 0 1 .791-1.866c.426-.55 1.012-.981 1.759-1.297.747-.315 1.645-.473 2.695-.473.75 0 1.44.086 2.073.257.632.172 1.182.42 1.651.745.47.326.833.724 1.09 1.196.257.472.386 1.011.386 1.617v7.78h-3.517v-1.595h-.092a3.29 3.29 0 0 1-.8.984 3.27 3.27 0 0 1-1.139.603 4.998 4.998 0 0 1-1.472.201zm1.155-2.384c.403 0 .766-.08 1.09-.239.323-.159.582-.378.776-.66.194-.28.29-.606.29-.979v-1.088a2.29 2.29 0 0 1-.386.15 8.978 8.978 0 0 1-1.044.231l-.542.081c-.352.055-.652.14-.899.254a1.397 1.397 0 0 0-.566.443c-.13.181-.195.396-.195.644 0 .378.14.666.417.865.278.198.63.298 1.06.298zm13.083-4.252v6.636h-3.59V3.78h3.413v2.136h.125a3.272 3.272 0 0 1 1.278-1.678c.602-.407 1.319-.61 2.151-.61.793 0 1.482.183 2.067.55.585.366 1.04.876 1.366 1.53.325.654.485 1.418.48 2.291v7.417h-3.59v-6.69c.005-.646-.153-1.15-.473-1.514-.321-.364-.765-.546-1.333-.546-.377 0-.709.085-.995.254a1.68 1.68 0 0 0-.66.723c-.155.314-.234.692-.24 1.137zm14.077 3.603.014-4.388h.487l3.095-4.14h3.969l-4.6 5.931h-.923l-2.042 2.597zm-3.16 3.033V0h3.504v15.415h-3.503zm6.835 0-2.88-4.802 2.307-2.612 4.62 7.414h-4.047z" id="iv8uqnhl6a"/>
        <path d="M105.072.93 84.157 44.718l.067.141L76.958 60l-.05-.105-.049.105-1.269-2.94L49.476.93h14.071l13.726 29.164 8.03-17.061h-8.037L72.23.93h32.842z" id="ovlpcgq15c"/>
    </defs>
    <g fill-rule="nonzero" fill="none">
        <g transform="translate(94.026 44.432)">
            <use fill="#FFF" xlink:href="#iv8uqnhl6a"/>
            <use fill="url(#4rdwk9vpzb)" xlink:href="#iv8uqnhl6a"/>
        </g>
        <path d="M16.785 9.242c-.095-1.056-.52-1.879-1.274-2.469-.753-.59-1.825-.885-3.217-.885-.921 0-1.69.12-2.303.36-.615.24-1.075.568-1.382.986a2.431 2.431 0 0 0-.475 1.432c-.02.442.07.83.266 1.166.197.336.485.631.864.886.379.254.837.477 1.374.67.538.191 1.143.359 1.814.503l2.534.576c1.459.316 2.747.739 3.865 1.267 1.118.527 2.059 1.156 2.822 1.885a7.341 7.341 0 0 1 1.735 2.52c.393.95.595 2.015.604 3.196-.01 1.861-.48 3.46-1.41 4.793-.932 1.334-2.268 2.356-4.01 3.067-1.742.71-3.841 1.065-6.298 1.065-2.466 0-4.616-.37-6.45-1.109-1.832-.739-3.258-1.861-4.275-3.368C.552 24.276.03 22.37 0 20.068h6.824c.057.95.312 1.742.763 2.375.45.633 1.072 1.113 1.864 1.44.792.326 1.71.49 2.757.49.96 0 1.778-.13 2.454-.39.677-.259 1.197-.619 1.562-1.08a2.55 2.55 0 0 0 .561-1.583c-.01-.556-.182-1.034-.518-1.432-.336-.399-.852-.744-1.547-1.037-.696-.292-1.581-.564-2.656-.813l-3.081-.72c-2.553-.585-4.563-1.533-6.032-2.843-1.468-1.31-2.198-3.083-2.188-5.32-.01-1.823.48-3.42 1.468-4.793.989-1.372 2.356-2.443 4.103-3.21C8.081.384 10.072 0 12.308 0c2.285 0 4.269.386 5.953 1.159 1.684.772 2.992 1.855 3.923 3.246.93 1.392 1.406 3.004 1.425 4.837h-6.824zM115.642.403v29.483h-7.126V.403h7.126zm21.074 8.84c-.096-1.057-.52-1.88-1.274-2.47-.753-.59-1.826-.885-3.217-.885-.922 0-1.69.12-2.304.36-.614.24-1.075.568-1.382.986a2.431 2.431 0 0 0-.475 1.432c-.019.442.07.83.267 1.166.196.336.484.631.863.886.38.254.838.477 1.375.67.538.191 1.142.359 1.814.503l2.534.576c1.458.316 2.747.739 3.865 1.267 1.118.527 2.058 1.156 2.821 1.885a7.341 7.341 0 0 1 1.735 2.52c.394.95.595 2.015.605 3.196-.01 1.861-.48 3.46-1.411 4.793-.931 1.334-2.267 2.356-4.01 3.067-1.741.71-3.84 1.065-6.297 1.065-2.467 0-4.617-.37-6.45-1.109-1.833-.739-3.258-1.861-4.275-3.368-1.018-1.507-1.54-3.412-1.57-5.715h6.824c.058.95.312 1.742.763 2.375s1.073 1.113 1.864 1.44c.792.326 1.711.49 2.757.49.96 0 1.778-.13 2.455-.39.676-.259 1.197-.619 1.562-1.08a2.55 2.55 0 0 0 .561-1.583c-.01-.556-.182-1.034-.518-1.432-.336-.399-.852-.744-1.548-1.037-.696-.292-1.58-.564-2.656-.813l-3.08-.72c-2.553-.585-4.564-1.533-6.032-2.843-1.469-1.31-2.198-3.083-2.188-5.32-.01-1.823.48-3.42 1.468-4.793.988-1.372 2.356-2.443 4.103-3.21C128.01.384 130.003 0 132.239 0c2.284 0 4.268.386 5.953 1.159 1.684.772 2.992 1.855 3.922 3.246.931 1.392 1.406 3.004 1.426 4.837h-6.824zm27.452 0c-.096-1.057-.52-1.88-1.274-2.47-.754-.59-1.826-.885-3.218-.885-.92 0-1.689.12-2.303.36-.614.24-1.075.568-1.382.986a2.431 2.431 0 0 0-.475 1.432c-.02.442.07.83.266 1.166.197.336.485.631.864.886.38.254.837.477 1.375.67.537.191 1.142.359 1.814.503l2.533.576c1.46.316 2.748.739 3.866 1.267 1.118.527 2.058 1.156 2.821 1.885a7.341 7.341 0 0 1 1.735 2.52c.393.95.595 2.015.605 3.196-.01 1.861-.48 3.46-1.411 4.793-.931 1.334-2.268 2.356-4.01 3.067-1.741.71-3.84 1.065-6.298 1.065-2.466 0-4.616-.37-6.449-1.109-1.833-.739-3.258-1.861-4.275-3.368-1.018-1.507-1.54-3.412-1.57-5.715h6.824c.058.95.312 1.742.763 2.375s1.072 1.113 1.864 1.44c.792.326 1.71.49 2.757.49.96 0 1.778-.13 2.454-.39.677-.259 1.198-.619 1.562-1.08a2.55 2.55 0 0 0 .562-1.583c-.01-.556-.182-1.034-.518-1.432-.336-.399-.852-.744-1.548-1.037-.696-.292-1.581-.564-2.656-.813l-3.08-.72c-2.554-.585-4.564-1.533-6.032-2.843-1.469-1.31-2.198-3.083-2.189-5.32-.01-1.823.48-3.42 1.469-4.793.988-1.372 2.356-2.443 4.103-3.21C155.463.384 157.455 0 159.69 0c2.284 0 4.268.386 5.952 1.159 1.685.772 2.992 1.855 3.923 3.246.931 1.392 1.406 3.004 1.425 4.837h-6.823zM25.837.93h14.07l20.677 43.93L53.32 60 25.837.93z" fill="#FFF"/>
        <g>
            <use fill="#FFF" xlink:href="#ovlpcgq15c"/>
            <use fill="url(#b6nkquy9rd)" xlink:href="#ovlpcgq15c"/>
        </g>
    </g>
</svg>
